# xmcd CD database file
#
# Track frame offsets:
#	150
#	16842
#	30322
#	42997
#	59052
#	72710
#	90846
#	103654
#	121793
#	138129
#	151484
#	168516
#
# Disc length: 2449 seconds
#
# Revision: 0
# Processed by: cddbd v1.5.2PL0 Copyright (c) Steve Scherf et al.
# Submitted via: CDex 1.77
#
DISCID=96098f0c
DTITLE=Laurence Jones Band - Everything's Gonna Be Alright
DYEAR=2019
DGENRE=Blues
TTITLE0=Everything's Gonna Be Alright
TTITLE1=Wipe Thoses Tears Dry
TTITLE2=I'm Waiting
TTITLE3=Stay
TTITLE4=Mistreated
TTITLE5=Quite Like You
TTITLE6=Log Long Lonely Ride
TTITLE7=Beautiful Place
TTITLE8=Low Down
TTITLE9=Day Tripper
TTITLE10=Heart Is On Fire
TTITLE11=Th Love
EXTD=YEAR: 2019
EXTT0=
EXTT1=
EXTT2=
EXTT3=
EXTT4=
EXTT5=
EXTT6=
EXTT7=
EXTT8=
EXTT9=
EXTT10=
EXTT11=
PLAYORDER=
